<svg width="13" height="31" viewBox="0 0 13 31" fill="none" xmlns="http://www.w3.org/2000/svg">
<path d="M2.56766 17.2C2.15432 17.2 1.83432 17.0933 1.60766 16.88C1.38099 16.6667 1.26766 16.3733 1.26766 16V3.02C1.26766 2.64667 1.38099 2.35333 1.60766 2.14C1.83432 1.92667 2.15432 1.82 2.56766 1.82C2.96766 1.82 3.28766 1.92667 3.52766 2.14C3.76766 2.35333 3.88766 2.64667 3.88766 3.02V8.78C4.38099 8.16667 4.93432 7.72 5.54766 7.44C6.16099 7.14667 6.87432 7 7.68766 7C8.96766 7 9.97432 7.40667 10.7077 8.22C11.4543 9.02 11.8277 10.1133 11.8277 11.5V16C11.8277 16.3733 11.7077 16.6667 11.4677 16.88C11.2277 17.0933 10.9077 17.2 10.5077 17.2C10.0943 17.2 9.77432 17.0933 9.54766 16.88C9.32099 16.6667 9.20766 16.3733 9.20766 16V11.5C9.20766 10.74 9.02099 10.1467 8.64766 9.72C8.27432 9.29333 7.75432 9.08 7.08766 9.08C6.07432 9.08 5.28766 9.38 4.72766 9.98C4.16766 10.5667 3.88766 11.3933 3.88766 12.46V16C3.88766 16.3733 3.76766 16.6667 3.52766 16.88C3.28766 17.0933 2.96766 17.2 2.56766 17.2Z" fill="black"/>
<path d="M2.57272 28.2C2.15939 28.2 1.83939 28.0933 1.61272 27.88C1.38606 27.6667 1.27272 27.3733 1.27272 27V14.02C1.27272 13.6467 1.38606 13.3533 1.61272 13.14C1.83939 12.9267 2.15939 12.82 2.57272 12.82C2.97272 12.82 3.29272 12.9267 3.53272 13.14C3.77272 13.3533 3.89272 13.6467 3.89272 14.02V21.98L9.73272 18.22C10.0261 18.0333 10.2927 17.94 10.5327 17.94C10.9194 17.94 11.1994 18.12 11.3727 18.48C11.4794 18.72 11.5327 18.92 11.5327 19.08C11.5327 19.4267 11.3261 19.7267 10.9127 19.98L7.81272 21.9C8.98606 22.6067 9.85939 23.3533 10.4327 24.14C11.0194 24.9267 11.3794 25.8533 11.5127 26.92C11.5261 26.9733 11.5327 27.0533 11.5327 27.16C11.5327 27.4933 11.4327 27.7533 11.2327 27.94C11.0461 28.1133 10.7794 28.2 10.4327 28.2C10.0727 28.2 9.77272 28.1267 9.53272 27.98C9.30606 27.8333 9.15939 27.62 9.09272 27.34C8.89272 26.5667 8.66606 25.94 8.41272 25.46C8.17272 24.98 7.85272 24.5667 7.45272 24.22C7.06606 23.86 6.53939 23.4933 5.87272 23.12L3.89272 24.48V27C3.89272 27.3733 3.77272 27.6667 3.53272 27.88C3.29272 28.0933 2.97272 28.2 2.57272 28.2Z" fill="black"/>
</svg>
